<svg width="0" height="0" class="hidden">
    <symbol xmlns="http://www.w3.org/2000/svg" viewBox="0 -960 960 960" id="email-icon">
        <path fill="current" d="M157.694-180.001q-23.529 0-40.611-17.082-17.082-17.082-17.082-40.611v-484.612q0-23.529 17.082-40.611 17.082-17.082 40.611-17.082h644.612q23.529 0 40.611 17.082 17.082 17.082 17.082 40.611v484.612q0 23.529-17.082 40.611-17.082 17.082-40.611 17.082H157.694ZM480-473.924 145.385-695.385v457.691q0 5.385 3.462 8.847 3.462 3.462 8.847 3.462h644.612q5.385 0 8.847-3.462 3.462-3.462 3.462-8.847v-457.691L480-473.924Zm0-47.691 325.615-213h-650.23l324.615 213Zm-334.615-173.77v-39.23 496.921q0 5.385 3.462 8.847 3.462 3.462 8.847 3.462h-12.309v-470Z" />
    </symbol>
    <symbol xmlns="http://www.w3.org/2000/svg" viewBox="0 -960 960 960" id="password-icon">
        <path fill="current" d="M90-210.001V-256H870v45.999H90.001Zm28-249.384-32.692-17.769 40.77-69.923H46.154v-36.538h79.924l-40.77-69.154L118-670.922l39.154 68.538 39.154-68.538 32.307 18.153-40.385 69.154h79.924v36.538H188.23l40.385 69.923-32.307 17.769-39.154-68.923L118-459.385Zm322.846 0-32.692-19.384 40.77-69.539H369v-36.922h79.924l-40.77-69.154 32.692-17.769L480-603.999l39.154-68.154 32.692 17.769-40.77 69.154H591v36.922h-79.924l40.77 69.539-32.692 19.384L480-528.308l-39.154 68.923Zm322.846 0-32.307-19.384 40.385-69.539h-79.924v-36.922h79.924l-40.385-69.154 32.307-17.769 39.154 68.154L842-672.153l32.692 17.769-40.77 69.154h79.924v36.922h-79.924l40.77 69.539L842-459.385l-39.154-68.923-39.154 68.923Z" />
    </symbol>
    <symbol xmlns="http://www.w3.org/2000/svg" viewBox="0 -960 960 960" id="file-icon">
        <path fill="current" d="M329.385-257.308h301.23v-45.384h-301.23v45.384Zm0-167.308h301.23v-45.383h-301.23v45.383Zm-91.691 324.615q-23.529 0-40.611-17.082-17.082-17.082-17.082-40.611v-644.612q0-23.529 17.082-40.611 17.082-17.082 40.611-17.082h347.537l194.768 194.768v507.537q0 23.529-17.082 40.611-17.082 17.082-40.611 17.082H237.694ZM562.539-644.77v-169.845H237.694q-4.616 0-8.463 3.846-3.846 3.847-3.846 8.463v644.612q0 4.616 3.846 8.463 3.847 3.846 8.463 3.846h484.612q4.616 0 8.463-3.846 3.846-3.847 3.846-8.463V-644.77H562.539ZM225.385-814.615v169.845-169.845 669.23V-814.615Z" />
    </symbol>
    <symbol xmlns="http://www.w3.org/2000/svg" viewBox="0 -960 960 960" id="grid-view-icon">
        <path fill="current" d="M140.001-512.693v-307.306h307.306v307.306H140.001Zm0 372.692v-307.306h307.306v307.306H140.001Zm372.692-372.692v-307.306h307.306v307.306H512.693Zm0 372.692v-307.306h307.306v307.306H512.693ZM185.385-558.076h216.539v-216.539H185.385v216.539Zm372.691 0h216.539v-216.539H558.076v216.539Zm0 372.691h216.539v-216.539H558.076v216.539Zm-372.691 0h216.539v-216.539H185.385v216.539Zm372.691-372.691Zm0 156.152Zm-156.152 0Zm0-156.152Z" />
    </symbol>
    <symbol xmlns="http://www.w3.org/2000/svg" viewBox="0 -960 960 960" id="list-view-icon">
        <path fill="current" d="M384.693-208.385v-45.384h435.306v45.384H384.693Zm0-248.923v-45.384h435.306v45.384H384.693Zm0-249.538v-45.384h435.306v45.384H384.693ZM198.65-174.078q-24.069 0-41.051-16.392-16.982-16.391-16.982-40.492 0-24.1 16.699-40.8 16.699-16.699 40.8-16.699 24.101 0 40.492 17.174Q255-254.112 255-230.269q0 23.018-16.553 39.604-16.553 16.587-39.797 16.587Zm0-248.923q-24.069 0-41.051-16.88-16.982-16.881-16.982-40.119t17.06-40.119q17.06-16.88 41.017-16.88 23.132 0 39.719 16.88Q255-503.238 255-480t-16.553 40.119q-16.553 16.88-39.797 16.88Zm-1.034-249.538q-23.238 0-40.119-16.88-16.88-16.881-16.88-40.119t16.88-40.119q16.881-16.88 40.311-16.88 23.431 0 40.311 16.88Q255-752.776 255-729.538t-16.857 40.119q-16.856 16.88-40.527 16.88Z" />
    </symbol>
    <symbol xmlns="http://www.w3.org/2000/svg" viewBox="0 -960 960 960" id="close-icon">
        <path fill="current" d="m250.923-218.924-31.999-31.999L448.001-480 218.924-709.077l31.999-31.999L480-511.999l229.077-229.077 31.999 31.999L511.999-480l229.077 229.077-31.999 31.999L480-448.001 250.923-218.924Z" />
    </symbol>
    <symbol xmlns="http://www.w3.org/2000/svg" viewBox="0 -960 960 960" id="add-icon">
        <path fill="current" d="M450-200v-250H200v-60h250v-250h60v250h250v60H510v250h-60Z" />
    </symbol>
    <symbol xmlns="http://www.w3.org/2000/svg" viewBox="0 -960 960 960" id="star-icon">
        <path fill="current" d="M331.462-216.155 480-305.539l148.538 90.384-39.308-169.153 130.692-113.461L547.538-513 480-672.153 412.462-514l-172.384 15.231L370.77-384.923l-39.308 168.768Zm-68.46 94.613 57.307-246.766L128.85-534.23l252.613-21.922L480-788.842l98.537 232.69L831.15-534.23 639.691-368.308l57.307 246.766L480-252.463 263.002-121.542ZM480-433.846Z" />
    </symbol>
    <symbol xmlns="http://www.w3.org/2000/svg" viewBox="0 -960 960 960" id="star-filled-icon">
        <path fill="current" d="m263.002-121.542 57.307-246.766L128.85-534.23l252.613-21.922L480-788.842l98.537 232.69L831.15-534.23 639.691-368.308l57.307 246.766L480-252.463 263.002-121.542Z" />
    </symbol>
    <symbol xmlns="http://www.w3.org/2000/svg" viewBox="0 -960 960 960" id="connect-cloud-icon">
        <path fill="current" d="M253.308-180.001q-80.692 0-136.999-56.5T60.002-373.693q0-73.384 49.23-129.114 49.231-55.731 122.769-62.73 15.384-93.154 85.73-153.5 70.346-60.346 163.884-60.346 104.692 0 177.076 75.73 72.385 75.731 72.385 182.038v37.847h12.308q65.461-2.385 111.038 41.307t45.577 110.384q0 62.461-44.808 107.268-44.807 44.808-107.268 44.808H253.308Zm0-45.384h494.615q44.231 0 75.461-31.231 31.231-31.23 31.231-75.461 0-43.846-31.231-75.077-31.23-31.231-75.461-31.231h-62.231v-83.23q0-88.692-60.231-150.539Q565.231-734 478.385-734q-86.462 0-147.192 61.846-60.731 61.847-60.731 150.539h-19.385q-60.846 0-103.269 42.923-42.423 42.923-42.423 105.384 0 61.462 43.231 104.692 43.23 43.231 104.692 43.231ZM480-480Z" />
    </symbol>
    <symbol xmlns="http://www.w3.org/2000/svg" viewBox="0 -960 960 960" id="download-icon">
        <path fill="current" d="M237.694-180.001q-23.529 0-40.611-17.082-17.082-17.082-17.082-40.611v-124.537h45.384v124.537q0 4.616 3.846 8.463 3.847 3.846 8.463 3.846h484.612q4.616 0 8.463-3.846 3.846-3.847 3.846-8.463v-124.537h45.384v124.537q0 23.529-17.082 40.611-17.082 17.082-40.611 17.082H237.694ZM480-330.309l-165.69-165.69 32.614-32.23L457.308-418.23v-368.692h45.384v368.692l110.384-109.999 32.614 32.23L480-330.309Z" />
    </symbol>
    <symbol xmlns="http://www.w3.org/2000/svg" viewBox="0 -960 960 960" id="upload-icon">
        <path fill="current" d="M458.924-226.233h45.383v-202.153l87 87.385 32-32L480-513.461 338.309-371.385l31.614 31.614 89.001-88.615v202.153Zm-221.23 126.232q-23.616 0-40.654-17.039-17.039-17.038-17.039-40.654v-644.612q0-23.616 17.039-40.654 17.038-17.039 40.654-17.039h347.537l194.768 194.768v507.537q0 23.616-17.039 40.654-17.038 17.039-40.654 17.039H237.694ZM562.539-644.77h172.076L562.539-814.615v169.845Z" />
    </symbol>
    <symbol xmlns="http://www.w3.org/2000/svg" viewBox="0 -960 960 960" id="logout-icon">
        <path fill="current" d="M201.54-120q-23.529 0-40.61-17.082-17.082-17.081-17.082-40.61v-584.614q0-23.529 17.082-40.611 17.081-17.082 40.61-17.082h276.384v45.384H201.54q-4.616 0-8.462 3.846-3.847 3.847-3.847 8.463v584.614q0 4.616 3.847 8.462 3.846 3.846 8.462 3.846h276.384V-120H201.54Zm462.921-197.693-32.999-32.23 97.384-97.384H375.769v-45.384h351.847l-97.385-97.384 32.615-32.615 153.306 153.498-151.691 151.499Z" />
    </symbol>
    <symbol xmlns="http://www.w3.org/2000/svg" viewBox="0 -960 960 960" id="delete-icon">
        <path fill="current" d="M278.309-140.001q-23.596 0-40.644-17.048-17.048-17.049-17.048-40.645v-544.228h-40.616v-45.384h171.076v-28.077h257.846v28.077h171.076v45.384h-40.616v544.228q0 23.529-17.081 40.611-17.082 17.082-40.611 17.082H278.309ZM694-741.922H266v544.228q0 5.385 3.654 8.847 3.655 3.462 8.655 3.462h403.382q4.616 0 8.462-3.846 3.847-3.847 3.847-8.463v-544.228ZM381.232-269.846h45.383v-388.615h-45.383v388.615Zm152.153 0h45.383v-388.615h-45.383v388.615ZM266-741.922V-185.385-741.922Z" />
    </symbol>
    <symbol xmlns="http://www.w3.org/2000/svg" viewBox="0 -960 960 960" id="restore-icon">
        <path fill="current" d="M457.308-347.847h45.384v-198.692l85.769 89.615 32.615-32.614L480-631.23 338.924-489.538l32.615 32.614 85.769-89.615v198.692ZM278.309-140.001q-23.529 0-40.611-17.082-17.081-17.082-17.081-40.611v-544.228h-40.616v-45.384h171.076v-28.077h257.846v28.077h171.076v45.384h-40.616v544.228q0 23.529-17.081 40.611-17.082 17.082-40.611 17.082H278.309ZM694-741.922H266v544.228q0 4.616 3.847 8.463 3.846 3.846 8.462 3.846h403.382q4.616 0 8.462-3.846 3.847-3.847 3.847-8.463v-544.228Zm-428 0V-185.385-741.922Z" />
    </symbol>
    <symbol xmlns="http://www.w3.org/2000/svg" viewBox="0 -960 960 960" id="hamburger-icon">
        <path fill="current" d="M130.001-254.616V-300h699.998v45.384H130.001Zm0-202.692v-45.384h699.998v45.384H130.001Zm0-202.692v-45.384h699.998V-660H130.001Z" />
    </symbol>
    <symbol xmlns="http://www.w3.org/2000/svg" viewBox="0 -960 960 960" id="light-mode-icon">
        <path fill="current" d="M479.719-345.385q55.973 0 95.435-39.181 39.461-39.181 39.461-95.153 0-55.973-39.181-95.435-39.181-39.461-95.153-39.461-55.973 0-95.435 39.181-39.461 39.181-39.461 95.153 0 55.973 39.181 95.435 39.181 39.461 95.153 39.461Zm.281 45.384q-74.922 0-127.461-52.538Q300.001-405.078 300.001-480t52.538-127.461Q405.078-659.999 480-659.999t127.461 52.538Q659.999-554.922 659.999-480t-52.538 127.461Q554.922-300.001 480-300.001ZM72.692-457.308q-9.643 0-16.167-6.58Q50-470.469 50-480.196t6.524-16.111q6.523-6.385 16.167-6.385h104.616q9.644 0 16.168 6.58Q200-489.531 200-479.804t-6.524 16.111q-6.524 6.385-16.168 6.385H72.693Zm710 0q-9.644 0-16.168-6.58Q760-470.469 760-480.196t6.524-16.111q6.524-6.385 16.168-6.385h104.615q9.644 0 16.168 6.58 6.524 6.581 6.524 16.308t-6.524 16.111q-6.524 6.385-16.168 6.385H782.692ZM479.804-760q-9.727 0-16.111-6.524-6.385-6.524-6.385-16.168v-104.615q0-9.644 6.58-16.168 6.581-6.524 16.308-6.524t16.111 6.524q6.385 6.524 6.385 16.168v104.615q0 9.644-6.58 16.168Q489.531-760 479.804-760Zm0 710q-9.727 0-16.111-6.525-6.385-6.523-6.385-16.167v-104.616q0-9.644 6.58-16.168Q470.469-200 480.196-200t16.111 6.524q6.385 6.524 6.385 16.168v104.615q0 9.645-6.58 16.168Q489.531-50 479.804-50ZM250.385-678.386l-60.461-59.077q-6.693-6.692-6.482-16.151.21-9.46 6.495-16.567 6.99-6.973 16.257-6.973 9.267 0 16.344 7.077L282-709.999q6.461 7.146 6.461 16.034 0 8.888-6.269 15.498-6.269 6.544-15.499 6.544-9.231 0-16.308-6.462Zm487.077 488.461L678-250.001q-6.461-7.128-6.461-16.208 0-9.08 6.961-15.791 6-7.077 15.019-6.884 9.019.192 16.096 7.269l60.461 59.077q6.693 6.692 6.482 16.151-.21 9.46-6.495 16.567-6.99 6.973-16.257 6.973-9.267 0-16.344-7.077ZM678-677.808q-7.077-6.884-6.884-15.807.192-8.923 7.269-16l59.077-60.461q6.692-6.693 16.151-6.482 9.46.21 16.567 6.495 6.973 6.99 6.973 16.257 0 9.267-7.077 16.344L709.999-678q-6.461 6.461-15.573 6.461-9.111 0-16.426-6.269ZM189.82-189.737q-6.973-7.19-6.973-16.457t7.077-16.344L250.001-282q7.03-7.077 15.976-7.077 8.946 0 15.799 7.077 6.916 6.5 6.724 15.519-.193 9.019-6.885 16.096l-59.077 60.461q-7.077 7.077-16.344 6.867-9.267-.211-16.374-6.68ZM480-480Z" />
    </symbol>
    <symbol xmlns="http://www.w3.org/2000/svg" viewBox="0 -960 960 960" id="dark-mode-icon">
        <path fill="current" d="M481.154-140.001q-141.666 0-240.832-99.167Q141.155-338.334 141.155-480q0-135.768 92.115-232.883 92.114-97.115 225.575-105.192 4.153 0 9.114.307 4.962.308 13.961.489-27.153 30.896-41.96 71.742-14.808 40.845-14.808 85.537 0 98.334 68.834 167.168 68.834 68.833 167.168 68.833 44.307 0 85.345-13.691 41.038-13.692 71.5-38.615.23 7.384.538 11.23.308 3.846.308 7.384-7.693 133.461-104.808 225.575-97.115 92.115-232.883 92.115Zm0-45.384q103.23 0 181.345-62.5 78.116-62.499 101.193-149.653-23.462 9.462-49.82 14.192-26.359 4.731-52.718 4.731-116.927 0-199.156-82.229T379.769-660q0-23.231 4.423-48.615 4.423-25.385 15.5-56.154-92.615 28.154-152.884 107.466Q186.539-577.992 186.539-480q0 122.769 85.923 208.692t208.692 85.923Zm-5.539-289.692Z" />
    </symbol>
    <symbol xmlns="http://www.w3.org/2000/svg" viewBox="0 -960 960 960" id="search-icon">
        <path fill="current" d="M790.615-137.54 531.077-397.078q-29.848 26.414-69.61 40.707t-82.313 14.293q-101.873 0-172.436-70.514t-70.563-170.999q0-100.485 70.514-171.062 70.514-70.577 171.219-70.577 100.706 0 171.255 70.533 70.548 70.532 70.548 171.054 0 42.028-14.384 81.835-14.385 39.808-41.616 72.115l260.154 258.539-33.23 33.614ZM378.539-387.461q81.955 0 138.862-57.116 56.907-57.115 56.907-139.077 0-81.961-56.907-139.077-56.907-57.115-138.862-57.115-82.468 0-139.734 57.115-57.266 57.116-57.266 139.077 0 81.962 57.266 139.077 57.266 57.116 139.734 57.116Z" />
    </symbol>
    <symbol xmlns="http://www.w3.org/2000/svg" viewBox="0 0 48 48" id="besafe-shield-icon">
        <path fill="current" d="M24 42C19.625 40.95 16.0312 38.5125 13.2188 34.6875C10.4062 30.8625 9 26.67 9 22.11V11.4L24 6L39 11.4V22.11C39 26.67 37.5938 30.8625 34.7812 34.6875C31.9688 38.5125 28.375 40.95 24 42ZM24 39.21C27.3125 38.16 30.0547 36.2325 32.2266 33.4275C34.3984 30.6225 35.6719 27.48 36.0469 24H24V8.925L11.8125 13.29V22.11C11.8125 22.47 11.8203 22.7775 11.8359 23.0325C11.8516 23.2875 11.8906 23.61 11.9531 24H24V39.21Z" />
    </symbol>
    <symbol xmlns="http://www.w3.org/2000/svg" viewBox="0 -960 960 960" id="lock-icon">
        <path fill="current" d="M237.694-100.001q-23.596 0-40.645-17.048-17.048-17.049-17.048-40.645v-400.151q0-23.894 17.048-40.793 17.049-16.899 40.645-16.899h69.615v-91.769q0-71.89 50.439-122.29 50.439-50.401 122.384-50.401 71.944 0 122.252 50.401 50.307 50.4 50.307 122.29v91.769h69.615q23.596 0 40.645 16.899 17.048 16.899 17.048 40.793v400.151q0 23.596-17.048 40.645-17.049 17.048-40.645 17.048H237.694Zm0-45.384h484.612q5.385 0 8.847-3.462 3.462-3.462 3.462-8.847v-400.151q0-5.385-3.462-8.847-3.462-3.462-8.847-3.462H237.694q-5.385 0-8.847 3.462-3.462 3.462-3.462 8.847v400.151q0 5.385 3.462 8.847 3.462 3.462 8.847 3.462Zm242.474-144.616q27.986 0 47.793-19.531 19.808-19.531 19.808-47.007 0-26.538-19.976-47.768-19.976-21.231-47.961-21.231-27.986 0-47.793 21.231-19.808 21.23-19.808 48.268 0 27.039 19.976 46.538 19.976 19.5 47.961 19.5ZM352.693-615.537h254.614v-91.769q0-53.045-37.09-90.176-37.09-37.132-90.077-37.132-52.986 0-90.217 37.132-37.23 37.131-37.23 90.176v91.769ZM225.385-145.385v-424.769 424.769Z" />
    </symbol>
    <!-- sidebar-icon below -->
    <symbol xmlns="http://www.w3.org/2000/svg" viewBox="0 -960 960 960" id="all-files-sidebar-icon">
        <path fill="current" d="m216.924-152.31-73.461-439.997h673.074L743.076-152.31H216.924Zm37.692-45.384h450.768l55.462-349.23H199.154l55.462 349.23ZM400-396.924h160q9.904 0 16.298-6.706 6.394-6.706 6.394-16 0-9.909-6.394-16.293-6.394-6.385-16.298-6.385H400q-9.288 0-15.99 6.398t-6.702 16.307q0 9.294 6.702 15.987 6.702 6.692 15.99 6.692ZM240-654.615q-9.288 0-15.99-6.706-6.702-6.705-6.702-15.999 0-9.91 6.702-16.294 6.702-6.385 15.99-6.385h480q9.904 0 16.298 6.398 6.394 6.398 6.394 16.308 0 9.294-6.394 15.986T720-654.615H240Zm80-107.691q-9.288 0-15.99-6.706t-6.702-16q0-9.909 6.702-16.293 6.702-6.385 15.99-6.385h320q9.904 0 16.298 6.398 6.394 6.398 6.394 16.307 0 9.294-6.394 15.986-6.394 6.693-16.298 6.693H320Zm-65.384 564.612h450.768-450.768Z" />
    </symbol>
    <symbol xmlns="http://www.w3.org/2000/svg" viewBox="0 -960 960 960" id="ultra-safe-files-sidebar-icon">
        <path fill="current" d="M480-220.001q-102.461 0-176.461-68.539-73.999-68.538-82.307-168.768H87.692v-45.384h133.54q8.308-100.23 82.307-168.768 74-68.539 176.461-68.539 102.461 0 176.461 68.539 73.999 68.538 82.307 168.768h133.539v45.384H738.768q-8.308 100.23-82.307 168.768-74 68.539-176.461 68.539Zm.443-45.384q89.249 0 151.711-62.904 62.461-62.905 62.461-152.154t-62.41-151.711q-62.41-62.461-151.659-62.461t-152.205 62.41q-62.956 62.41-62.956 151.659t62.904 152.205q62.905 62.956 152.154 62.956Zm-78.054-83.077h155.268q15.516 0 26.045-10.252 10.529-10.251 10.529-25.665v-115.723q0-15.414-10.483-25.925-10.483-10.512-25.979-10.512h-2.923v-37.153q0-31.68-21.526-54.955-21.526-23.276-53.704-23.276-31.231 0-52.847 22.822-21.615 22.822-21.615 54.255v38.307h-2.923q-15.554 0-25.816 10.427-10.261 10.427-10.261 25.84v115.724q0 15.413 10.359 25.75 10.36 10.336 25.876 10.336ZM480-413.077q-12.231 0-20.731-8.5-8.5-8.5-8.5-20.731 0-12.231 8.5-20.731 8.5-8.5 20.731-8.5 12.231 0 20.731 8.5 8.5 8.5 8.5 20.731 0 12.231-8.5 20.731-8.5 8.5-20.731 8.5Zm-46.769-123.462v-38.307q0-20 13.528-34.5 13.529-14.5 33.16-14.5 19.631 0 33.241 14.5 13.609 14.5 13.609 34.5v38.307h-93.538ZM480-442.308Z" />
    </symbol>
    <symbol xmlns="http://www.w3.org/2000/svg" viewBox="0 -960 960 960" id="favourite-sidebar-icon">
        <path fill="current" d="M331.462-216.155 480-305.539l148.538 90.384-39.308-169.153 130.692-113.461L547.538-513 480-672.153 412.462-514l-172.384 15.231L370.77-384.923l-39.308 168.768Zm-68.46 94.613 57.307-246.766L128.85-534.23l252.613-21.922L480-788.842l98.537 232.69L831.15-534.23 639.691-368.308l57.307 246.766L480-252.463 263.002-121.542ZM480-433.846Z" />
    </symbol>
    <symbol xmlns="http://www.w3.org/2000/svg" viewBox="0 -960 960 960" id="recycle-bin-sidebar-icon">
        <path fill="current" d="M278.309-140.001q-23.596 0-40.644-17.048-17.048-17.049-17.048-40.645v-544.228h-40.616v-45.384h171.076v-28.077h257.846v28.077h171.076v45.384h-40.616v544.228q0 23.529-17.081 40.611-17.082 17.082-40.611 17.082H278.309ZM694-741.922H266v544.228q0 5.385 3.654 8.847 3.655 3.462 8.655 3.462h403.382q4.616 0 8.462-3.846 3.847-3.847 3.847-8.463v-544.228ZM381.232-269.846h45.383v-388.615h-45.383v388.615Zm152.153 0h45.383v-388.615h-45.383v388.615ZM266-741.922V-185.385-741.922Z" />
    </symbol>
    <!-- sidebar-icon above -->
</svg>
