<svg width="0" height="0" class="hidden">
    <symbol xmlns="http://www.w3.org/2000/svg" viewBox="0 96 960 960" id="email-icon">
        <path fill="current" d="M149 921q-39.05 0-66.525-27.475Q55 866.05 55 827V325q0-39.463 27.475-67.231Q109.95 230 149 230h662q39.463 0 67.231 27.769Q906 285.537 906 325v502q0 39.05-27.769 66.525Q850.463 921 811 921H149Zm331-295L149 403v424h662V403L480 626Zm0-83 327-218H154l326 218ZM149 403v-78 502-424Z" />
    </symbol>
    <symbol xmlns="http://www.w3.org/2000/svg" viewBox="0 96 960 960" id="password-icon">
        <path fill="current" d="M63 873v-95h834v95H63Zm46-263-50-28 37-64H23v-57h73l-37-64 50-28 36 64 36-64 49 28-37 64h73v57h-73l37 64-49 28-36-64-36 64Zm335 0-50-30 38-64h-74v-57h74l-38-64 50-28 36 64 36-64 50 28-37 64h73v57h-73l37 64-50 30-36-64-36 64Zm336 0-50-30 38-64h-74v-57h74l-38-64 50-28 35 64 36-64 51 28-38 64h73v57h-73l38 64-51 30-36-64-35 64Z" />
    </symbol>
    <symbol xmlns="http://www.w3.org/2000/svg" viewBox="0 -960 960 960" id="file-icon">
        <path fill="current" d="M319-250h322v-60H319v60Zm0-170h322v-60H319v60ZM220-80q-24 0-42-18t-18-42v-680q0-24 18-42t42-18h361l219 219v521q0 24-18 42t-42 18H220Zm331-554v-186H220v680h520v-494H551ZM220-820v186-186 680-680Z" />
    </symbol>
    <symbol xmlns="http://www.w3.org/2000/svg" viewBox="0 -960 960 960" id="grid-view-icon">
        <path fill="current" d="M120-510v-330h330v330H120Zm0 390v-330h330v330H120Zm390-390v-330h330v330H510Zm0 390v-330h330v330H510ZM180-570h210v-210H180v210Zm390 0h210v-210H570v210Zm0 390h210v-210H570v210Zm-390 0h210v-210H180v210Zm390-390Zm0 180Zm-180 0Zm0-180Z" />
    </symbol>
    <symbol xmlns="http://www.w3.org/2000/svg" viewBox="0 -960 960 960" id="list-view-icon">
        <path fill="current" d="M149.825-280Q137-280 128.5-288.675q-8.5-8.676-8.5-21.5 0-12.825 8.675-21.325 8.676-8.5 21.5-8.5 12.825 0 21.325 8.675 8.5 8.676 8.5 21.5 0 12.825-8.675 21.325-8.676 8.5-21.5 8.5Zm0-170Q137-450 128.5-458.675q-8.5-8.676-8.5-21.5 0-12.825 8.675-21.325 8.676-8.5 21.5-8.5 12.825 0 21.325 8.675 8.5 8.676 8.5 21.5 0 12.825-8.675 21.325-8.676 8.5-21.5 8.5Zm0-170Q137-620 128.5-628.675q-8.5-8.676-8.5-21.5 0-12.825 8.675-21.325 8.676-8.5 21.5-8.5 12.825 0 21.325 8.675 8.5 8.676 8.5 21.5 0 12.825-8.675 21.325-8.676 8.5-21.5 8.5ZM290-280v-60h550v60H290Zm0-170v-60h550v60H290Zm0-170v-60h550v60H290Z" />
    </symbol>
    <symbol xmlns="http://www.w3.org/2000/svg" viewBox="0 -960 960 960" id="close-icon">
        <path fill="current" d="m250.923-218.924-31.999-31.999L448.001-480 218.924-709.077l31.999-31.999L480-511.999l229.077-229.077 31.999 31.999L511.999-480l229.077 229.077-31.999 31.999L480-448.001 250.923-218.924Z" />
    </symbol>
    <symbol fill="none" xmlns="http://www.w3.org/2000/svg" viewBox="0 -960 960 960" id="upload-icon">
        <path fill="#4359F6" d="M458.924-226.233h45.383v-202.153l87 87.385 32-32L480-513.461 338.309-371.385l31.614 31.614 89.001-88.615v202.153Zm-221.23 126.232q-23.616 0-40.654-17.039-17.039-17.038-17.039-40.654v-644.612q0-23.616 17.039-40.654 17.038-17.039 40.654-17.039h347.537l194.768 194.768v507.537q0 23.616-17.039 40.654-17.038 17.039-40.654 17.039H237.694ZM562.539-644.77h172.076L562.539-814.615v169.845Z" />
    </symbol>
</svg>
