<svg width="0" height="0" class="hidden">
    <symbol xmlns="http://www.w3.org/2000/svg" viewBox="0 96 960 960" id="email">
        <path fill="current" d="M149 921q-39.05 0-66.525-27.475Q55 866.05 55 827V325q0-39.463 27.475-67.231Q109.95 230 149 230h662q39.463 0 67.231 27.769Q906 285.537 906 325v502q0 39.05-27.769 66.525Q850.463 921 811 921H149Zm331-295L149 403v424h662V403L480 626Zm0-83 327-218H154l326 218ZM149 403v-78 502-424Z" />
    </symbol>
    <symbol xmlns="http://www.w3.org/2000/svg" viewBox="0 96 960 960" id="password">
        <path fill="current" d="M63 873v-95h834v95H63Zm46-263-50-28 37-64H23v-57h73l-37-64 50-28 36 64 36-64 49 28-37 64h73v57h-73l37 64-49 28-36-64-36 64Zm335 0-50-30 38-64h-74v-57h74l-38-64 50-28 36 64 36-64 50 28-37 64h73v57h-73l37 64-50 30-36-64-36 64Zm336 0-50-30 38-64h-74v-57h74l-38-64 50-28 35 64 36-64 51 28-38 64h73v57h-73l38 64-51 30-36-64-35 64Z" />
    </symbol>
</svg>
