<svg width="48" height="48" viewBox="0 0 48 48" fill="none" xmlns="http://www.w3.org/2000/svg">
    <rect width="48" height="48" rx="6" fill="#005776" />
    <path d="M24 42C19.625 40.95 16.0312 38.5125 13.2188 34.6875C10.4062 30.8625 9 26.67 9 22.11V11.4L24 6L39 11.4V22.11C39 26.67 37.5938 30.8625 34.7812 34.6875C31.9688 38.5125 28.375 40.95 24 42ZM24 39.21C27.3125 38.16 30.0547 36.2325 32.2266 33.4275C34.3984 30.6225 35.6719 27.48 36.0469 24H24V8.925L11.8125 13.29V22.11C11.8125 22.47 11.8203 22.7775 11.8359 23.0325C11.8516 23.2875 11.8906 23.61 11.9531 24H24V39.21Z" fill="#6DD5FA" />
</svg>
