<svg width="139" height="176" viewBox="0 0 139 176" fill="none" xmlns="http://www.w3.org/2000/svg">
<path d="M18.2822 0.750977H106.74L137.897 32.7564V166.212C137.897 169.887 134.913 172.866 131.231 172.866H18.2825C14.6008 172.866 11.6172 169.886 11.6172 166.212V7.40569C11.6172 3.73053 14.6008 0.750977 18.2822 0.750977Z" fill="white" stroke="#A4A4A4" stroke-width="0.5" />
<path d="M137 95.501H1C0.447715 95.501 0 95.9487 0 96.501V141.501C0 142.053 0.447715 142.501 1 142.501H137C137.552 142.501 138 142.053 138 141.501V96.501C138 95.9487 137.552 95.501 137 95.501Z" fill="#3FA0E7" />
<path d="M55.025 119.848C55.025 121.703 54.7158 123.407 54.0975 124.958C53.4792 126.51 52.61 127.846 51.49 128.966C50.37 130.086 49.0225 130.955 47.4475 131.573C45.8725 132.192 44.1283 132.501 42.215 132.501H32.555V107.196H42.215C44.1283 107.196 45.8725 107.511 47.4475 108.141C49.0225 108.759 50.37 109.628 51.49 110.748C52.61 111.857 53.4792 113.187 54.0975 114.738C54.7158 116.29 55.025 117.993 55.025 119.848ZM50.2125 119.848C50.2125 118.46 50.0258 117.218 49.6525 116.121C49.2792 115.013 48.7483 114.079 48.06 113.321C47.3717 112.551 46.5317 111.962 45.54 111.553C44.56 111.145 43.4517 110.941 42.215 110.941H37.2975V128.756H42.215C43.4517 128.756 44.56 128.552 45.54 128.143C46.5317 127.735 47.3717 127.152 48.06 126.393C48.7483 125.623 49.2792 124.69 49.6525 123.593C50.0258 122.485 50.2125 121.237 50.2125 119.848ZM82.975 119.848C82.975 121.703 82.6658 123.424 82.0475 125.011C81.4291 126.586 80.56 127.951 79.44 129.106C78.32 130.261 76.9725 131.165 75.3975 131.818C73.8225 132.46 72.0783 132.781 70.165 132.781C68.2516 132.781 66.5016 132.46 64.915 131.818C63.34 131.165 61.9866 130.261 60.855 129.106C59.735 127.951 58.8658 126.586 58.2475 125.011C57.6291 123.424 57.32 121.703 57.32 119.848C57.32 117.993 57.6291 116.278 58.2475 114.703C58.8658 113.117 59.735 111.746 60.855 110.591C61.9866 109.436 63.34 108.538 64.915 107.896C66.5016 107.243 68.2516 106.916 70.165 106.916C72.0783 106.916 73.8225 107.243 75.3975 107.896C76.9725 108.549 78.32 109.453 79.44 110.608C80.56 111.752 81.4291 113.117 82.0475 114.703C82.6658 116.278 82.975 117.993 82.975 119.848ZM78.145 119.848C78.145 118.46 77.9583 117.218 77.585 116.121C77.2233 115.013 76.6983 114.073 76.01 113.303C75.3216 112.533 74.4816 111.944 73.49 111.536C72.51 111.128 71.4016 110.923 70.165 110.923C68.9283 110.923 67.8141 111.128 66.8225 111.536C65.8308 111.944 64.985 112.533 64.285 113.303C63.5966 114.073 63.0658 115.013 62.6925 116.121C62.3191 117.218 62.1325 118.46 62.1325 119.848C62.1325 121.237 62.3191 122.485 62.6925 123.593C63.0658 124.69 63.5966 125.623 64.285 126.393C64.985 127.152 65.8308 127.735 66.8225 128.143C67.8141 128.552 68.9283 128.756 70.165 128.756C71.4016 128.756 72.51 128.552 73.49 128.143C74.4816 127.735 75.3216 127.152 76.01 126.393C76.6983 125.623 77.2233 124.69 77.585 123.593C77.9583 122.485 78.145 121.237 78.145 119.848ZM104.091 126.533C104.347 126.533 104.569 126.633 104.756 126.831L106.611 128.843C105.584 130.115 104.318 131.089 102.813 131.766C101.32 132.443 99.5231 132.781 97.4231 132.781C95.5448 132.781 93.8531 132.46 92.3481 131.818C90.8548 131.177 89.5773 130.284 88.5156 129.141C87.454 127.998 86.6373 126.633 86.0656 125.046C85.5056 123.459 85.2256 121.727 85.2256 119.848C85.2256 117.947 85.5406 116.208 86.1706 114.633C86.8006 113.047 87.6873 111.682 88.8306 110.538C89.974 109.395 91.339 108.508 92.9256 107.878C94.524 107.237 96.2856 106.916 98.2106 106.916C100.089 106.916 101.728 107.219 103.128 107.826C104.54 108.421 105.747 109.214 106.751 110.206L105.176 112.393C105.082 112.533 104.96 112.656 104.808 112.761C104.668 112.866 104.47 112.918 104.213 112.918C103.945 112.918 103.671 112.813 103.391 112.603C103.111 112.393 102.755 112.166 102.323 111.921C101.891 111.676 101.343 111.448 100.678 111.238C100.025 111.028 99.1906 110.923 98.1756 110.923C96.9856 110.923 95.889 111.133 94.8856 111.553C93.894 111.962 93.0365 112.551 92.3131 113.321C91.6015 114.091 91.0415 115.03 90.6331 116.138C90.2365 117.235 90.0381 118.472 90.0381 119.848C90.0381 121.272 90.2365 122.538 90.6331 123.646C91.0415 124.754 91.5898 125.688 92.2781 126.446C92.9665 127.204 93.7773 127.788 94.7106 128.196C95.644 128.593 96.6473 128.791 97.7206 128.791C98.3623 128.791 98.9398 128.756 99.4531 128.686C99.9781 128.616 100.456 128.505 100.888 128.353C101.331 128.202 101.746 128.009 102.131 127.776C102.527 127.531 102.918 127.233 103.303 126.883C103.42 126.778 103.542 126.697 103.671 126.638C103.799 126.568 103.939 126.533 104.091 126.533Z" fill="white" />
<path d="M1 142.501L11.373 152.132V142.501H1Z" fill="#D2D2D2" />
<path d="M137 32.501L107 1.50098V32.501H137Z" stroke="#A4A4A4" stroke-width="0.5" />
<line x1="33.9648" y1="44.251" x2="91.592" y2="44.251" stroke="#A4A4A4" stroke-width="0.5" />
<line x1="33.9648" y1="61.1748" x2="91.592" y2="61.1748" stroke="#A4A4A4" stroke-width="0.5" />
<rect x="34.2148" y="75.2119" width="33.3983" height="9.65384" stroke="#A4A4A4" stroke-width="0.5" />
</svg>
