<svg width="141" height="110" viewBox="0 0 141 110" fill="none" xmlns="http://www.w3.org/2000/svg">
<path d="M138.204 41.5612C135.538 37.9316 131.427 35.8437 126.93 35.8437H123.525V26.6893C123.525 18.9803 117.262 12.7168 109.521 12.7168H68.6631C66.3183 12.7168 64.0698 11.7853 62.3995 10.1471L55.9754 3.75512C53.3415 1.12122 49.8403 -0.324219 46.1143 -0.324219H14.1863C6.47735 -0.324219 0.213813 5.93933 0.213813 13.6804V95.1707C0.117451 98.2864 1.04895 101.37 2.94407 103.94C5.64222 107.601 9.78579 109.721 14.3469 109.721H112.604C118.739 109.721 124.103 105.771 125.966 99.8925L140.324 53.9919C141.641 49.7199 140.87 45.1909 138.204 41.5612ZM5.32101 13.6804C5.32101 8.79807 9.30398 4.8151 14.1542 4.8151H46.1143C48.4591 4.8151 50.6755 5.7466 52.3779 7.38476L58.802 13.7768C61.4359 16.4107 64.9371 17.8561 68.6631 17.8561H109.553C114.435 17.8561 118.418 21.8391 118.418 26.6893V35.8437H28.4801C22.345 35.8437 16.9808 39.7946 15.1178 45.6405L5.28889 76.9904V13.6804H5.32101Z" fill="#005776" />
</svg>
