<svg width="139" height="176" viewBox="0 0 139 176" fill="none" xmlns="http://www.w3.org/2000/svg">
<path d="M18.2822 0.750977H106.74L137.897 32.7564V166.212C137.897 169.887 134.913 172.866 131.231 172.866H18.2825C14.6008 172.866 11.6172 169.886 11.6172 166.212V7.40569C11.6172 3.73053 14.6008 0.750977 18.2822 0.750977Z" fill="white" stroke="#A4A4A4" stroke-width="0.5" />
<path d="M137 95.501H1C0.447715 95.501 0 95.9487 0 96.501V141.501C0 142.053 0.447715 142.501 1 142.501H137C137.552 142.501 138 142.053 138 141.501V96.501C138 95.9487 137.552 95.501 137 95.501Z" fill="#27DB7A" />
<path d="M49.74 123.506C49.74 124.929 49.565 126.213 49.215 127.356C48.865 128.499 48.34 129.473 47.64 130.278C46.9517 131.083 46.0883 131.702 45.05 132.133C44.0117 132.565 42.8042 132.781 41.4275 132.781C40.7975 132.781 40.1792 132.74 39.5725 132.658C38.9658 132.588 38.33 132.472 37.665 132.308L37.91 129.508C37.9333 129.252 38.0267 129.048 38.19 128.896C38.365 128.733 38.6158 128.651 38.9425 128.651C39.1408 128.651 39.3975 128.692 39.7125 128.773C40.0392 128.855 40.4475 128.896 40.9375 128.896C41.6025 128.896 42.1917 128.803 42.705 128.616C43.2183 128.418 43.6442 128.108 43.9825 127.688C44.3325 127.268 44.595 126.726 44.77 126.061C44.945 125.384 45.0325 124.568 45.0325 123.611V107.196H49.74V123.506ZM59.6983 123.593V132.501H54.9908V107.196H63.2333C64.925 107.196 66.3892 107.394 67.6258 107.791C68.8625 108.188 69.8833 108.742 70.6883 109.453C71.4933 110.165 72.0883 111.017 72.4733 112.008C72.8583 113 73.0508 114.085 73.0508 115.263C73.0508 116.488 72.8467 117.614 72.4383 118.641C72.03 119.656 71.4175 120.531 70.6008 121.266C69.7842 122.001 68.7633 122.573 67.5383 122.981C66.3133 123.389 64.8783 123.593 63.2333 123.593H59.6983ZM59.6983 119.918H63.2333C64.0967 119.918 64.8492 119.813 65.4908 119.603C66.1325 119.382 66.6633 119.073 67.0833 118.676C67.5033 118.268 67.8183 117.778 68.0283 117.206C68.2383 116.623 68.3433 115.975 68.3433 115.263C68.3433 114.587 68.2383 113.974 68.0283 113.426C67.8183 112.878 67.5033 112.411 67.0833 112.026C66.6633 111.641 66.1325 111.349 65.4908 111.151C64.8492 110.941 64.0967 110.836 63.2333 110.836H59.6983V119.918ZM88.3283 129.036C89.39 129.036 90.3117 128.943 91.0933 128.756C91.8867 128.558 92.6392 128.289 93.3508 127.951V123.348H90.1833C89.88 123.348 89.6408 123.267 89.4658 123.103C89.2908 122.928 89.2033 122.718 89.2033 122.473V119.813H97.6208V130.051C96.9792 130.518 96.3083 130.926 95.6083 131.276C94.92 131.614 94.1792 131.894 93.3858 132.116C92.6042 132.338 91.7642 132.501 90.8658 132.606C89.9675 132.723 88.9992 132.781 87.9608 132.781C86.1175 132.781 84.42 132.46 82.8683 131.818C81.3167 131.177 79.975 130.284 78.8433 129.141C77.7117 127.998 76.825 126.633 76.1833 125.046C75.5533 123.459 75.2383 121.727 75.2383 119.848C75.2383 117.947 75.5475 116.203 76.1658 114.616C76.7842 113.029 77.6592 111.664 78.7908 110.521C79.9342 109.378 81.3167 108.491 82.9383 107.861C84.56 107.231 86.38 106.916 88.3983 106.916C90.4633 106.916 92.2483 107.225 93.7533 107.843C95.27 108.45 96.5533 109.243 97.6033 110.223L96.2383 112.358C95.97 112.79 95.6142 113.006 95.1708 113.006C94.8908 113.006 94.605 112.913 94.3133 112.726C93.94 112.504 93.555 112.283 93.1583 112.061C92.7733 111.839 92.3417 111.647 91.8633 111.483C91.3967 111.32 90.8658 111.186 90.2708 111.081C89.6875 110.976 89.0108 110.923 88.2408 110.923C86.9925 110.923 85.8608 111.133 84.8458 111.553C83.8425 111.973 82.985 112.574 82.2733 113.356C81.5617 114.138 81.0133 115.077 80.6283 116.173C80.2433 117.27 80.0508 118.495 80.0508 119.848C80.0508 121.307 80.255 122.608 80.6633 123.751C81.0717 124.883 81.6433 125.839 82.3783 126.621C83.1133 127.403 83.9883 128.003 85.0033 128.423C86.0183 128.832 87.1267 129.036 88.3283 129.036Z" fill="white" />
<path d="M1 142.501L11.373 152.132V142.501H1Z" fill="#D2D2D2" />
<path d="M137 32.501L107 1.50098V32.501H137Z" stroke="#A4A4A4" stroke-width="0.5" />
<path d="M98.4 86.501H45.6C41.9601 86.501 39 83.6418 39 80.126V41.876C39 38.3602 41.9601 35.501 45.6 35.501H98.4C102.04 35.501 105 38.3602 105 41.876V80.126C105 83.6418 102.04 86.501 98.4 86.501ZM45.6 36.001C41.5 36.001 39.5 39.501 39.5 41.876V80.126C39.5 84.001 43 86.001 45.6 86.001H98.4C100.218 86.001 104.5 84.501 104.5 80.126V41.876C104.5 37.501 100.218 36.001 98.4 36.001H45.6Z" fill="#A4A4A4" />
<path d="M55.5 58.001C51.8601 58.001 49 54.9543 49 51.4385C49 47.9227 51.8601 45.001 55.5 45.001C59.1399 45.001 62 47.9852 62 51.501C62 55.0168 59.1399 58.001 55.5 58.001ZM55.5 45.501C51.0001 45.501 49.5 49.6822 49.5 51.4385C49.5 53.501 51 57.501 55.4999 57.501C59.9998 57.501 61.5 53.2573 61.5 51.501C61.5 49.501 59.9999 45.501 55.5 45.501Z" fill="#A4A4A4" />
<path d="M39.7147 80.3723L55.3006 65.3177C57.1684 63.5136 60.5003 64.001 62.0003 65.501L67.5003 73.001L82.3209 54.3011C83.1888 53.2969 84.0001 53.0018 84.5001 53.001C86.0001 53.001 86.5001 54.001 87.3468 54.8596L104.606 74.3097C105.2 74.9759 105 76.1068 104.606 76.5011C104.606 76.5011 105.203 75.6737 104.606 75.0011L86.5001 54.5011C86.18 54.1441 85.5001 53.501 84.5001 53.501C83.5001 53.501 82.641 54.5604 82.3209 54.9333L67.5003 73.501C67.5003 73.501 64 68.501 62.0001 66.001C60.0003 63.501 56.5003 64.501 55.749 65.3177C54.9977 66.1345 40.0002 80.501 40.0002 80.501C39.2699 81.2315 39.1579 80.9101 39.7147 80.3723Z" fill="#A4A4A4" />
</svg>
