<svg width="129" height="176" viewBox="0 0 129 176" fill="none" xmlns="http://www.w3.org/2000/svg">
<path d="M8.01265 1.00098H96.3646L127.377 32.858V166.212C127.377 169.748 124.505 172.616 120.962 172.616H8.01301C4.46898 172.616 1.59766 169.748 1.59766 166.212V7.40569C1.59766 3.86895 4.46898 1.00098 8.01265 1.00098Z" fill="white" stroke="#A4A4A4" />
<path d="M126.727 32.501L96.7266 1.50098V32.501H126.727Z" stroke="#A4A4A4" stroke-width="0.5" />
<path d="M87.3494 61.9372C86.9441 61.5977 86.4097 61.4558 85.8898 61.55L46.9297 68.384C46.0816 68.5378 45.409 69.8071 45.409 70.6715V106.899C44.6487 106.467 43.0805 104.221 39.3262 104.221C37.0451 104.221 31.7227 105.934 31.7227 111.846C31.7227 114.896 33.4304 119.471 39.3262 119.471C45.409 119.471 46.9297 114.134 46.9297 111.799V83.634L86.4682 76.009V101.171C86.4682 101.171 84.995 96.5965 78.8646 96.5965C72.9688 96.5965 69.7404 101.243 69.7404 105.746C69.7404 111.659 75.0629 114.896 78.8646 114.896C84.7605 114.896 87.9889 109.63 87.9889 105.746V63.3086C87.9889 62.7791 87.7547 62.2768 87.3494 61.9372ZM39.3262 117.946C37.8055 117.946 33.2434 117.232 33.2434 111.846C33.2434 107.905 36.2848 105.746 39.3262 105.746C43.128 105.746 45.409 108.796 45.409 111.799C45.409 114.134 44.6487 117.946 39.3262 117.946ZM46.9297 82.109V70.2664L86.4682 63.0147V74.484L46.9297 82.109ZM78.8646 113.371C74.9341 113.371 71.2611 109.688 71.2611 105.746C71.2611 101.805 74.9341 98.1215 78.8646 98.1215C82.7952 98.1215 86.4682 101.805 86.4682 105.746C86.4682 109.688 82.7952 113.371 78.8646 113.371Z" fill="#005776" />
</svg>
