<svg width="139" height="176" viewBox="0 0 139 176" fill="none" xmlns="http://www.w3.org/2000/svg">
<path d="M18.2822 0.750977H106.74L137.897 32.7564V166.212C137.897 169.887 134.913 172.866 131.231 172.866H18.2825C14.6008 172.866 11.6172 169.886 11.6172 166.212V7.40569C11.6172 3.73053 14.6008 0.750977 18.2822 0.750977Z" fill="white" stroke="#A4A4A4" stroke-width="0.5" />
<path d="M137 95.501H1C0.447715 95.501 0 95.9487 0 96.501V141.501C0 142.053 0.447715 142.501 1 142.501H137C137.552 142.501 138 142.053 138 141.501V96.501C138 95.9487 137.552 95.501 137 95.501Z" fill="#F15642" />
<path d="M42.42 123.593V132.501H37.7125V107.196H45.955C47.6467 107.196 49.1108 107.394 50.3475 107.791C51.5842 108.188 52.605 108.742 53.41 109.453C54.215 110.165 54.81 111.017 55.195 112.008C55.58 113 55.7725 114.085 55.7725 115.263C55.7725 116.488 55.5683 117.614 55.16 118.641C54.7517 119.656 54.1392 120.531 53.3225 121.266C52.5058 122.001 51.485 122.573 50.26 122.981C49.035 123.389 47.6 123.593 45.955 123.593H42.42ZM42.42 119.918H45.955C46.8183 119.918 47.5708 119.813 48.2125 119.603C48.8542 119.382 49.385 119.073 49.805 118.676C50.225 118.268 50.54 117.778 50.75 117.206C50.96 116.623 51.065 115.975 51.065 115.263C51.065 114.587 50.96 113.974 50.75 113.426C50.54 112.878 50.225 112.411 49.805 112.026C49.385 111.641 48.8542 111.349 48.2125 111.151C47.5708 110.941 46.8183 110.836 45.955 110.836H42.42V119.918ZM81.9 119.848C81.9 121.703 81.5908 123.407 80.9725 124.958C80.3542 126.51 79.485 127.846 78.365 128.966C77.245 130.086 75.8975 130.955 74.3225 131.573C72.7475 132.192 71.0033 132.501 69.09 132.501H59.43V107.196H69.09C71.0033 107.196 72.7475 107.511 74.3225 108.141C75.8975 108.759 77.245 109.628 78.365 110.748C79.485 111.857 80.3542 113.187 80.9725 114.738C81.5908 116.29 81.9 117.993 81.9 119.848ZM77.0875 119.848C77.0875 118.46 76.9008 117.218 76.5275 116.121C76.1542 115.013 75.6233 114.079 74.935 113.321C74.2467 112.551 73.4067 111.962 72.415 111.553C71.435 111.145 70.3267 110.941 69.09 110.941H64.1725V128.756H69.09C70.3267 128.756 71.435 128.552 72.415 128.143C73.4067 127.735 74.2467 127.152 74.935 126.393C75.6233 125.623 76.1542 124.69 76.5275 123.593C76.9008 122.485 77.0875 121.237 77.0875 119.848ZM101.537 107.196V110.941H90.32V118.431H99.7875V122.193H90.32V132.501H85.5775V107.196H101.537Z" fill="white" />
<path d="M1 142.501L11.373 152.132V142.501H1Z" fill="#D2D2D2" />
<path d="M137 32.501L107 1.50098V32.501H137Z" stroke="#A4A4A4" stroke-width="0.5" />
<line x1="33.9648" y1="44.251" x2="91.592" y2="44.251" stroke="#A4A4A4" stroke-width="0.5" />
<line x1="33.9648" y1="61.1748" x2="91.592" y2="61.1748" stroke="#A4A4A4" stroke-width="0.5" />
<rect x="34.2148" y="75.2119" width="33.3983" height="9.65384" stroke="#A4A4A4" stroke-width="0.5" />
</svg>
