<svg width="139" height="176" viewBox="0 0 139 176" fill="none" xmlns="http://www.w3.org/2000/svg">
<path d="M18.2822 0.750977H106.74L137.897 32.7564V166.212C137.897 169.887 134.913 172.866 131.231 172.866H18.2825C14.6008 172.866 11.6172 169.886 11.6172 166.212V7.40569C11.6172 3.73053 14.6008 0.750977 18.2822 0.750977Z" fill="white" stroke="#A4A4A4" stroke-width="0.5" />
<path d="M98.4 86.501H45.6C41.9601 86.501 39 83.6418 39 80.126V41.876C39 38.3602 41.9601 35.501 45.6 35.501H98.4C102.04 35.501 105 38.3602 105 41.876V80.126C105 83.6418 102.04 86.501 98.4 86.501ZM45.6 36.001C41.5 36.001 39.5 39.501 39.5 41.876V80.126C39.5 84.001 43 86.001 45.6 86.001H98.4C100.218 86.001 104.5 84.501 104.5 80.126V41.876C104.5 37.501 100.218 36.001 98.4 36.001H45.6Z" fill="#A4A4A4" />
<path d="M55.5 58.001C51.8601 58.001 49 54.9543 49 51.4385C49 47.9227 51.8601 45.001 55.5 45.001C59.1399 45.001 62 47.9852 62 51.501C62 55.0168 59.1399 58.001 55.5 58.001ZM55.5 45.501C51.0001 45.501 49.5 49.6822 49.5 51.4385C49.5 53.501 51 57.501 55.4999 57.501C59.9998 57.501 61.5 53.2573 61.5 51.501C61.5 49.501 59.9999 45.501 55.5 45.501Z" fill="#A4A4A4" />
<path d="M39.7147 80.3723L55.3006 65.3177C57.1684 63.5136 60.5003 64.001 62.0003 65.501L67.5003 73.001L82.3209 54.3011C83.1888 53.2969 84.0001 53.0018 84.5001 53.001C86.0001 53.001 86.5001 54.001 87.3468 54.8596L104.606 74.3097C105.2 74.9759 105 76.1068 104.606 76.5011C104.606 76.5011 105.203 75.6737 104.606 75.0011L86.5001 54.5011C86.18 54.1441 85.5001 53.501 84.5001 53.501C83.5001 53.501 82.641 54.5604 82.3209 54.9333L67.5003 73.501C67.5003 73.501 64 68.501 62.0001 66.001C60.0003 63.501 56.5003 64.501 55.749 65.3177C54.9977 66.1345 40.0002 80.501 40.0002 80.501C39.2699 81.2315 39.1579 80.9101 39.7147 80.3723Z" fill="#A4A4A4" />
<path d="M137 95.501H1C0.447715 95.501 0 95.9487 0 96.501V141.501C0 142.053 0.447715 142.501 1 142.501H137C137.552 142.501 138 142.053 138 141.501V96.501C138 95.9487 137.552 95.501 137 95.501Z" fill="#966B65" />
<path d="M39.42 123.593V132.501H34.7125V107.196H42.955C44.6467 107.196 46.1108 107.394 47.3475 107.791C48.5842 108.188 49.605 108.742 50.41 109.453C51.215 110.165 51.81 111.017 52.195 112.008C52.58 113 52.7725 114.085 52.7725 115.263C52.7725 116.488 52.5683 117.614 52.16 118.641C51.7517 119.656 51.1392 120.531 50.3225 121.266C49.5058 122.001 48.485 122.573 47.26 122.981C46.035 123.389 44.6 123.593 42.955 123.593H39.42ZM39.42 119.918H42.955C43.8183 119.918 44.5708 119.813 45.2125 119.603C45.8542 119.382 46.385 119.073 46.805 118.676C47.225 118.268 47.54 117.778 47.75 117.206C47.96 116.623 48.065 115.975 48.065 115.263C48.065 114.587 47.96 113.974 47.75 113.426C47.54 112.878 47.225 112.411 46.805 112.026C46.385 111.641 45.8542 111.349 45.2125 111.151C44.5708 110.941 43.8183 110.836 42.955 110.836H39.42V119.918ZM58.8975 107.196C59.1075 107.196 59.2825 107.208 59.4225 107.231C59.5625 107.243 59.685 107.278 59.79 107.336C59.9067 107.383 60.0175 107.458 60.1225 107.563C60.2275 107.657 60.3442 107.785 60.4725 107.948L73.755 124.871C73.7083 124.463 73.6733 124.066 73.65 123.681C73.6383 123.284 73.6325 122.917 73.6325 122.578V107.196H77.78V132.501H75.3475C74.9742 132.501 74.665 132.443 74.42 132.326C74.175 132.209 73.9358 131.999 73.7025 131.696L60.4725 114.843C60.5075 115.217 60.5308 115.59 60.5425 115.963C60.5658 116.325 60.5775 116.658 60.5775 116.961V132.501H56.43V107.196H58.8975ZM94.5051 129.036C95.5667 129.036 96.4884 128.943 97.2701 128.756C98.0634 128.558 98.8159 128.289 99.5276 127.951V123.348H96.3601C96.0567 123.348 95.8176 123.267 95.6426 123.103C95.4676 122.928 95.3801 122.718 95.3801 122.473V119.813H103.798V130.051C103.156 130.518 102.485 130.926 101.785 131.276C101.097 131.614 100.356 131.894 99.5626 132.116C98.7809 132.338 97.9409 132.501 97.0426 132.606C96.1442 132.723 95.1759 132.781 94.1376 132.781C92.2942 132.781 90.5967 132.46 89.0451 131.818C87.4934 131.177 86.1517 130.284 85.0201 129.141C83.8884 127.998 83.0017 126.633 82.3601 125.046C81.7301 123.459 81.4151 121.727 81.4151 119.848C81.4151 117.947 81.7242 116.203 82.3426 114.616C82.9609 113.029 83.8359 111.664 84.9676 110.521C86.1109 109.378 87.4934 108.491 89.1151 107.861C90.7367 107.231 92.5567 106.916 94.5751 106.916C96.6401 106.916 98.4251 107.225 99.9301 107.843C101.447 108.45 102.73 109.243 103.78 110.223L102.415 112.358C102.147 112.79 101.791 113.006 101.348 113.006C101.068 113.006 100.782 112.913 100.49 112.726C100.117 112.504 99.7317 112.283 99.3351 112.061C98.9501 111.839 98.5184 111.647 98.0401 111.483C97.5734 111.32 97.0426 111.186 96.4476 111.081C95.8642 110.976 95.1876 110.923 94.4176 110.923C93.1692 110.923 92.0376 111.133 91.0226 111.553C90.0192 111.973 89.1617 112.574 88.4501 113.356C87.7384 114.138 87.1901 115.077 86.8051 116.173C86.4201 117.27 86.2276 118.495 86.2276 119.848C86.2276 121.307 86.4317 122.608 86.8401 123.751C87.2484 124.883 87.8201 125.839 88.5551 126.621C89.2901 127.403 90.1651 128.003 91.1801 128.423C92.1951 128.832 93.3034 129.036 94.5051 129.036Z" fill="white" />
<path d="M1 142.501L11.373 152.132V142.501H1Z" fill="#D2D2D2" />
<path d="M137 32.501L107 1.50098V32.501H137Z" stroke="#A4A4A4" stroke-width="0.5" />
</svg>
