<svg width="139" height="176" viewBox="0 0 139 176" fill="none" xmlns="http://www.w3.org/2000/svg">
<path d="M18.2822 0.750977H106.74L137.897 32.7564V166.212C137.897 169.887 134.913 172.866 131.231 172.866H18.2825C14.6008 172.866 11.6172 169.886 11.6172 166.212V7.40569C11.6172 3.73053 14.6008 0.750977 18.2822 0.750977Z" fill="white" stroke="#A4A4A4" stroke-width="0.5" />
<path d="M137 95.501H1C0.447715 95.501 0 95.9487 0 96.501V141.501C0 142.053 0.447715 142.501 1 142.501H137C137.552 142.501 138 142.053 138 141.501V96.501C138 95.9487 137.552 95.501 137 95.501Z" fill="#CB4525" />
<path d="M46.42 123.593V132.501H41.7125V107.196H49.955C51.6467 107.196 53.1108 107.394 54.3475 107.791C55.5842 108.188 56.605 108.742 57.41 109.453C58.215 110.165 58.81 111.017 59.195 112.008C59.58 113 59.7725 114.085 59.7725 115.263C59.7725 116.488 59.5683 117.614 59.16 118.641C58.7517 119.656 58.1392 120.531 57.3225 121.266C56.5058 122.001 55.485 122.573 54.26 122.981C53.035 123.389 51.6 123.593 49.955 123.593H46.42ZM46.42 119.918H49.955C50.8183 119.918 51.5708 119.813 52.2125 119.603C52.8542 119.382 53.385 119.073 53.805 118.676C54.225 118.268 54.54 117.778 54.75 117.206C54.96 116.623 55.065 115.975 55.065 115.263C55.065 114.587 54.96 113.974 54.75 113.426C54.54 112.878 54.225 112.411 53.805 112.026C53.385 111.641 52.8542 111.349 52.2125 111.151C51.5708 110.941 50.8183 110.836 49.955 110.836H46.42V119.918ZM68.295 123.593V132.501H63.5875V107.196H71.83C73.5217 107.196 74.9858 107.394 76.2225 107.791C77.4592 108.188 78.48 108.742 79.285 109.453C80.09 110.165 80.685 111.017 81.07 112.008C81.455 113 81.6475 114.085 81.6475 115.263C81.6475 116.488 81.4433 117.614 81.035 118.641C80.6267 119.656 80.0142 120.531 79.1975 121.266C78.3808 122.001 77.36 122.573 76.135 122.981C74.91 123.389 73.475 123.593 71.83 123.593H68.295ZM68.295 119.918H71.83C72.6933 119.918 73.4458 119.813 74.0875 119.603C74.7292 119.382 75.26 119.073 75.68 118.676C76.1 118.268 76.415 117.778 76.625 117.206C76.835 116.623 76.94 115.975 76.94 115.263C76.94 114.587 76.835 113.974 76.625 113.426C76.415 112.878 76.1 112.411 75.68 112.026C75.26 111.641 74.7292 111.349 74.0875 111.151C73.4458 110.941 72.6933 110.836 71.83 110.836H68.295V119.918ZM103.138 107.196V111.063H95.525V132.501H90.8175V111.063H83.17V107.196H103.138Z" fill="white" />
<path d="M1 142.501L11.373 152.132V142.501H1Z" fill="#D2D2D2" />
<path d="M137 32.501L107 1.50098V32.501H137Z" stroke="#A4A4A4" stroke-width="0.5" />
<line x1="33.9648" y1="44.251" x2="91.592" y2="44.251" stroke="#A4A4A4" stroke-width="0.5" />
<line x1="33.9648" y1="61.1748" x2="91.592" y2="61.1748" stroke="#A4A4A4" stroke-width="0.5" />
<rect x="34.2148" y="75.2119" width="33.3983" height="9.65384" stroke="#A4A4A4" stroke-width="0.5" />
</svg>
