<svg width="139" height="176" viewBox="0 0 139 176" fill="none" xmlns="http://www.w3.org/2000/svg">
<path d="M18.2822 0.750977H106.74L137.897 32.7564V166.212C137.897 169.887 134.913 172.866 131.231 172.866H18.2825C14.6008 172.866 11.6172 169.886 11.6172 166.212V7.40569C11.6172 3.73053 14.6008 0.750977 18.2822 0.750977Z" fill="white" stroke="#A4A4A4" stroke-width="0.5" />
<path d="M137 95.501H1C0.447715 95.501 0 95.9487 0 96.501V141.501C0 142.053 0.447715 142.501 1 142.501H137C137.552 142.501 138 142.053 138 141.501V96.501C138 95.9487 137.552 95.501 137 95.501Z" fill="#FF65CB" />
<path d="M56.3875 107.196V111.063H48.775V132.501H44.0675V111.063H36.42V107.196H56.3875ZM65.4429 119.481L57.3754 107.196H62.0654C62.3921 107.196 62.6254 107.243 62.7654 107.336C62.9171 107.418 63.0513 107.558 63.1679 107.756L68.9254 117.048C68.9838 116.897 69.0479 116.751 69.1179 116.611C69.1879 116.459 69.2696 116.308 69.3629 116.156L74.6304 107.843C74.8871 107.412 75.2196 107.196 75.6279 107.196H80.1429L71.9879 119.288L80.3704 132.501H75.6629C75.3479 132.501 75.0913 132.419 74.8929 132.256C74.7063 132.093 74.5488 131.906 74.4204 131.696L68.5579 122.001C68.5113 122.141 68.4588 122.275 68.4004 122.403C68.3421 122.52 68.2838 122.631 68.2254 122.736L62.6079 131.696C62.4796 131.894 62.3221 132.081 62.1354 132.256C61.9488 132.419 61.7154 132.501 61.4354 132.501H57.0254L65.4429 119.481ZM100.958 107.196V111.063H93.3453V132.501H88.6378V111.063H80.9903V107.196H100.958Z" fill="white" />
<path d="M1 142.501L11.373 152.132V142.501H1Z" fill="#D2D2D2" />
<path d="M137 32.501L107 1.50098V32.501H137Z" stroke="#A4A4A4" stroke-width="0.5" />
<line x1="33.9648" y1="44.251" x2="91.592" y2="44.251" stroke="#A4A4A4" stroke-width="0.5" />
<line x1="33.9648" y1="61.1748" x2="91.592" y2="61.1748" stroke="#A4A4A4" stroke-width="0.5" />
<rect x="34.2148" y="75.2119" width="33.3983" height="9.65384" stroke="#A4A4A4" stroke-width="0.5" />
</svg>
