<svg width="144" height="145" viewBox="0 0 144 145" fill="none" xmlns="http://www.w3.org/2000/svg">
<path d="M120 12.499H0V132.499H144V12.499H120ZM18.9474 127.449H3.78947V113.299H18.9474V127.449ZM18.9474 108.501H3.78947V94.099H18.9474V108.501ZM18.9474 89.299H3.78947V74.899H18.9474V89.299ZM18.9474 70.099H3.78947V55.699H18.9474V70.099ZM18.9474 50.899H3.78947V36.5015L18.9474 36.499V50.899ZM18.9474 31.699H3.78947V17.299H18.9474V31.699ZM121.263 129.344H22.7368V15.6594H121.263V129.344ZM140.211 127.699H125.053V113.299H140.211V127.699ZM140.211 108.501H125.053V94.099H140.211V108.501ZM140.211 89.299H125.053V74.899H140.211V89.299ZM140.211 70.099H125.053V55.699H140.211V70.099ZM140.211 50.899H125.053V36.5015H140.211V50.899ZM140.211 30.8173H125.053V15.6594H140.211V30.8173Z" fill="#CCCCCC" />
<path d="M71.9986 49.7646C59.4415 49.7646 49.2617 59.9443 49.2617 72.5015C49.2617 85.0587 59.4415 95.2383 71.9986 95.2383C84.5556 95.2383 94.7354 85.0587 94.7354 72.5015C94.7354 59.9443 84.5556 49.7646 71.9986 49.7646ZM79.857 73.7067L68.4886 80.812C68.2585 80.9556 67.997 81.0278 67.7354 81.0278C67.4984 81.0278 67.2611 80.9688 67.0464 80.8495C66.5947 80.599 66.3143 80.1237 66.3143 79.6068V65.3962C66.3143 64.8793 66.5947 64.404 67.0464 64.1535C67.4981 63.9016 68.0504 63.9169 68.4886 64.191L79.857 71.2963C80.2723 71.5565 80.5249 72.0117 80.5249 72.5015C80.5249 72.9913 80.2723 73.4466 79.857 73.7067Z" fill="#71DDFF" />
</svg>
