<svg width="139" height="176" viewBox="0 0 139 176" fill="none" xmlns="http://www.w3.org/2000/svg">
<path d="M18.2822 0.750977H106.74L137.897 32.7564V166.212C137.897 169.887 134.913 172.866 131.231 172.866H18.2825C14.6008 172.866 11.6172 169.886 11.6172 166.212V7.40569C11.6172 3.73053 14.6008 0.750977 18.2822 0.750977Z" fill="white" stroke="#A4A4A4" stroke-width="0.5" />
<path d="M137 95.501H1C0.447715 95.501 0 95.9487 0 96.501V141.501C0 142.053 0.447715 142.501 1 142.501H137C137.552 142.501 138 142.053 138 141.501V96.501C138 95.9487 137.552 95.501 137 95.501Z" fill="#2E7D32" />
<path d="M47.6275 119.481L39.56 107.196H44.25C44.5767 107.196 44.81 107.243 44.95 107.336C45.1017 107.418 45.2358 107.558 45.3525 107.756L51.11 117.048C51.1683 116.897 51.2325 116.751 51.3025 116.611C51.3725 116.459 51.4542 116.308 51.5475 116.156L56.815 107.843C57.0717 107.412 57.4042 107.196 57.8125 107.196H62.3275L54.1725 119.288L62.555 132.501H57.8475C57.5325 132.501 57.2758 132.419 57.0775 132.256C56.8908 132.093 56.7333 131.906 56.605 131.696L50.7425 122.001C50.6958 122.141 50.6433 122.275 50.585 122.403C50.5267 122.52 50.4683 122.631 50.41 122.736L44.7925 131.696C44.6642 131.894 44.5067 132.081 44.32 132.256C44.1333 132.419 43.9 132.501 43.62 132.501H39.21L47.6275 119.481ZM70.0174 128.616H80.1499V132.501H65.3099V107.196H70.0174V128.616ZM96.9534 111.798C96.8251 112.055 96.6734 112.236 96.4984 112.341C96.3351 112.446 96.1368 112.498 95.9034 112.498C95.6701 112.498 95.4076 112.411 95.1159 112.236C94.8243 112.049 94.4801 111.845 94.0834 111.623C93.6868 111.402 93.2201 111.203 92.6834 111.028C92.1584 110.842 91.5343 110.748 90.8109 110.748C90.1576 110.748 89.5859 110.83 89.0959 110.993C88.6176 111.145 88.2093 111.361 87.8709 111.641C87.5443 111.921 87.2993 112.259 87.1359 112.656C86.9726 113.041 86.8909 113.467 86.8909 113.933C86.8909 114.528 87.0543 115.024 87.3809 115.421C87.7193 115.818 88.1626 116.156 88.7109 116.436C89.2593 116.716 89.8834 116.967 90.5834 117.188C91.2834 117.41 91.9951 117.649 92.7184 117.906C93.4534 118.151 94.1709 118.443 94.8709 118.781C95.5709 119.108 96.1951 119.528 96.7434 120.041C97.2918 120.543 97.7293 121.161 98.0559 121.896C98.3943 122.631 98.5634 123.523 98.5634 124.573C98.5634 125.717 98.3651 126.79 97.9684 127.793C97.5834 128.785 97.0118 129.654 96.2534 130.401C95.5068 131.136 94.5909 131.719 93.5059 132.151C92.4209 132.571 91.1784 132.781 89.7784 132.781C88.9734 132.781 88.1801 132.699 87.3984 132.536C86.6168 132.384 85.8643 132.163 85.1409 131.871C84.4293 131.579 83.7584 131.229 83.1284 130.821C82.5101 130.413 81.9559 129.958 81.4659 129.456L82.8309 127.198C82.9593 127.035 83.1109 126.901 83.2859 126.796C83.4726 126.679 83.6768 126.621 83.8984 126.621C84.1901 126.621 84.5051 126.743 84.8434 126.988C85.1818 127.222 85.5784 127.484 86.0334 127.776C86.5001 128.068 87.0426 128.336 87.6609 128.581C88.2909 128.814 89.0434 128.931 89.9184 128.931C91.2601 128.931 92.2984 128.616 93.0334 127.986C93.7684 127.344 94.1359 126.428 94.1359 125.238C94.1359 124.573 93.9668 124.031 93.6284 123.611C93.3018 123.191 92.8643 122.841 92.3159 122.561C91.7676 122.269 91.1434 122.024 90.4434 121.826C89.7434 121.628 89.0318 121.412 88.3084 121.178C87.5851 120.945 86.8734 120.665 86.1734 120.338C85.4734 120.012 84.8493 119.586 84.3009 119.061C83.7526 118.536 83.3093 117.883 82.9709 117.101C82.6443 116.308 82.4809 115.333 82.4809 114.178C82.4809 113.257 82.6618 112.358 83.0234 111.483C83.3968 110.608 83.9334 109.833 84.6334 109.156C85.3451 108.479 86.2143 107.937 87.2409 107.528C88.2676 107.12 89.4401 106.916 90.7584 106.916C92.2518 106.916 93.6284 107.149 94.8884 107.616C96.1484 108.083 97.2218 108.736 98.1084 109.576L96.9534 111.798Z" fill="white" />
<path d="M1 142.501L11.373 152.132V142.501H1Z" fill="#D2D2D2" />
<path d="M137 32.501L107 1.50098V32.501H137Z" stroke="#A4A4A4" stroke-width="0.5" />
<line x1="33.9648" y1="44.251" x2="91.592" y2="44.251" stroke="#A4A4A4" stroke-width="0.5" />
<line x1="33.9648" y1="61.1748" x2="91.592" y2="61.1748" stroke="#A4A4A4" stroke-width="0.5" />
<rect x="34.2148" y="75.2119" width="33.3983" height="9.65384" stroke="#A4A4A4" stroke-width="0.5" />
</svg>
