<svg width="127" height="114" viewBox="0 0 127 114" fill="none" xmlns="http://www.w3.org/2000/svg">
<path d="M127.251 49.5643V37.1992V27.7363C127.251 19.7676 120.777 13.293 112.775 13.293H70.5402C68.1164 13.293 65.7922 12.3301 64.0656 10.6367L57.425 4.0293C54.7023 1.30664 51.0832 -0.1875 47.2316 -0.1875H14.2277C6.25896 -0.1875 -0.215646 6.28711 -0.215646 14.2891V98.5254C-0.315255 101.746 0.647635 104.934 2.60662 107.59C5.39568 111.375 9.67888 113.566 14.3937 113.566H112.808C119.15 113.566 127.251 107.797 127.251 99.4933V49.5643ZM5.06365 14.2891C5.06365 9.24219 9.18084 5.125 14.1945 5.125H47.2316C49.6554 5.125 51.9465 6.08789 53.7062 7.78125L60.3468 14.3887C63.0695 17.1113 66.6887 18.6055 70.5402 18.6055H112.808C117.855 18.6055 121.972 22.7227 121.972 27.7363V37.1992C82.9914 37.1992 44.0109 37.1992 5.03045 37.1992V29.8949V14.2891H5.06365Z" fill="#005776" />
<path d="M103.354 50.5979V53.5836H104.882C105.726 53.5836 106.41 54.252 106.41 55.0764C106.41 55.9009 105.726 56.5693 104.882 56.5693H103.354V59.555H104.882C105.726 59.555 106.41 60.2234 106.41 61.0479C106.41 61.8724 105.726 62.5408 104.882 62.5408H103.354V65.5265H104.882C105.726 65.5265 106.41 66.1949 106.41 67.0193C106.41 67.8438 105.726 68.5122 104.882 68.5122H103.354V71.4979C103.354 72.3224 102.67 72.9908 101.826 72.9908C100.982 72.9908 100.298 72.3224 100.298 71.4979V65.5265H98.7702C97.9263 65.5265 97.2422 64.8581 97.2422 64.0336C97.2422 63.2091 97.9263 62.5408 98.7702 62.5408H100.298V59.555H98.7702C97.9263 59.555 97.2422 58.8867 97.2422 58.0622C97.2422 57.2377 97.9263 56.5693 98.7702 56.5693H100.298V53.5836H98.7702C97.9263 53.5836 97.2422 52.9152 97.2422 52.0907C97.2422 51.2662 97.9263 50.5979 98.7702 50.5979H100.298V47.6121H98.7702C97.9263 47.6121 97.2422 46.9438 97.2422 46.1193C97.2422 45.2948 97.9263 44.6264 98.7702 44.6264H100.298V37.1621H103.354V41.6407H104.882C105.726 41.6407 106.41 42.3091 106.41 43.1336C106.41 43.958 105.726 44.6264 104.882 44.6264H103.354V47.6121H104.882C105.726 47.6121 106.41 48.2805 106.41 49.105C106.41 49.9295 105.726 50.5979 104.882 50.5979H103.354Z" fill="white" />
<path d="M100.49 79.4609C98.759 79.4609 97.3555 80.8322 97.3555 82.5237V90.1806C97.3555 91.8721 98.759 93.2433 100.49 93.2433H103.625C105.357 93.2433 106.76 91.8721 106.76 90.1806V82.5237C106.76 80.8322 105.357 79.4609 103.625 79.4609H100.49ZM103.625 88.6492C103.625 89.495 102.923 90.1806 102.058 90.1806C101.192 90.1806 100.49 89.495 100.49 88.6492V87.1178C100.493 86.2731 101.193 85.589 102.058 85.5865C102.921 85.5927 103.619 86.2747 103.625 87.1178V88.6492Z" fill="white" />
<path d="M104.878 74.4847V81.949C104.878 82.7735 104.194 83.4419 103.35 83.4419H100.294C99.4497 83.4419 98.7656 82.7735 98.7656 81.949V74.4847C98.7707 72.8378 100.136 71.5039 101.822 71.499C103.504 71.5112 104.865 72.8409 104.878 74.4847Z" fill="white" />
</svg>
